<svg width="148" height="74" viewBox="0 0 148 74" fill="none" xmlns="http://www.w3.org/2000/svg">
<rect x="0.5" y="0.5" width="147" height="73" rx="7.5" stroke="#E0E0E0"/>
<path d="M29.6 59.2001C41.8608 59.2001 51.8001 49.2608 51.8001 37C51.8001 24.7393 41.8608 14.8 29.6 14.8C17.3393 14.8 7.39999 24.7393 7.39999 37C7.39999 49.2608 17.3393 59.2001 29.6 59.2001Z" fill="url(#paint0_radial_43_21)"/>
<path d="M25.9 25.9L33.3001 33.3L29.6001 44.4L22.2 40.7L25.9 25.9Z" fill="white"/>
<path d="M29.6 31.82C30.8261 31.82 31.82 30.8261 31.82 29.6C31.82 28.3739 30.8261 27.38 29.6 27.38C28.3739 27.38 27.38 28.3739 27.38 29.6C27.38 30.8261 28.3739 31.82 29.6 31.82Z" fill="white"/>
<path d="M131.35 22.2H61.05C60.0282 22.2 59.2 23.0283 59.2 24.05C59.2 25.0718 60.0282 25.9 61.05 25.9H131.35C132.372 25.9 133.2 25.0718 133.2 24.05C133.2 23.0283 132.372 22.2 131.35 22.2Z" fill="#757575"/>
<path d="M112.85 33.3H61.05C60.0282 33.3 59.2 34.1283 59.2 35.15C59.2 36.1718 60.0282 37 61.05 37H112.85C113.872 37 114.7 36.1718 114.7 35.15C114.7 34.1283 113.872 33.3 112.85 33.3Z" fill="#BDBDBD"/>
<path d="M123.95 44.4001H61.05C60.0282 44.4001 59.2 45.2284 59.2 46.2501C59.2 47.2718 60.0282 48.1001 61.05 48.1001H123.95C124.972 48.1001 125.8 47.2718 125.8 46.2501C125.8 45.2284 124.972 44.4001 123.95 44.4001Z" fill="#E0E0E0"/>
<circle cx="78" cy="60" r="4" fill="#10D118"/>
<circle cx="92" cy="60" r="4" fill="#2E7D32" fill-opacity="0.65"/>
<circle cx="107" cy="60" r="4" fill="#2E7D32" fill-opacity="0.43"/>
<defs>
<radialGradient id="paint0_radial_43_21" cx="0" cy="0" r="1" gradientUnits="userSpaceOnUse" gradientTransform="translate(2227.4 2234.8) scale(2220)">
<stop stop-color="#4CAF50"/>
<stop offset="1" stop-color="#2E7D32"/>
</radialGradient>
</defs>
</svg>
