<svg width="115" height="115" viewBox="0 0 115 115" fill="none" xmlns="http://www.w3.org/2000/svg">
<g clip-path="url(#clip0_35_24)">
<path d="M95.0941 71.7295C93.1496 71.7295 91.2841 70.8065 90.1032 69.2628L77.5409 52.8362L64.9785 69.2628C63.7977 70.8076 61.9322 71.7295 59.9876 71.7295H56.274L74.1316 48.3772L56.366 25.1462H60.0797C62.0243 25.1462 63.8909 26.0681 65.0706 27.6118L77.5398 43.9182L90.009 27.6118C91.1898 26.067 93.0553 25.1462 94.9999 25.1462H98.7136L80.9501 48.3772L98.8078 71.7295H95.0941Z" fill="#37474F"/>
<path d="M97.6194 25.6872L80.2677 48.3765L97.7115 71.1871H95.0942C93.3056 71.1871 91.6199 70.354 90.5334 68.9327L77.5409 51.9439L64.5485 68.9327C63.4619 70.354 61.7752 71.1871 59.9877 71.1871H57.3693L74.8131 48.3765L57.4624 25.6872H60.0808C61.8694 25.6872 63.5551 26.5202 64.6417 27.9416L77.5409 44.8101L90.4402 27.9416C91.5268 26.5202 93.2124 25.6872 95.001 25.6872H97.6194ZM99.811 24.6038H97.6183H94.9999C92.8885 24.6038 90.8616 25.6059 89.5778 27.2829L77.5409 43.0259L65.5018 27.2829C64.2192 25.6059 62.1923 24.6038 60.0798 24.6038H57.4613H55.2687L56.6001 26.3447L73.4492 48.3765L56.5091 70.5296L55.1766 72.2705H57.3693H59.9877C62.0991 72.2705 64.126 71.2684 65.4098 69.5914L77.5409 53.7271L89.6721 69.5914C90.9548 71.2684 92.9817 72.2705 95.0942 72.2705H97.7126H99.9053L98.5738 70.5296L81.6316 48.3765L98.4796 26.3447L99.811 24.6038Z" fill="#4CAF50"/>
<path d="M36.5834 73.8955C25.5323 73.8955 16.5417 64.5853 16.5417 53.1432V43.7301C16.5417 32.2879 25.5323 22.9788 36.5834 22.9788C47.6344 22.9788 56.625 32.2879 56.625 43.729V52.2277L21.9583 52.2288V53.1432C21.9583 61.5997 28.519 68.4788 36.5834 68.4788C41.0369 68.4788 45.3508 66.2396 48.1241 62.4891C49.3819 60.7872 51.2224 59.8111 53.1735 59.8111H55.0271L55.2481 60.0321L55.3933 60.3224L55.312 60.5423C52.3686 68.5298 44.8427 73.8955 36.5834 73.8955ZM51.2084 46.8122V43.729C51.2084 35.2747 44.6477 28.3955 36.5834 28.3955C28.519 28.3955 21.9583 35.2747 21.9583 43.7301V46.8122H51.2084Z" fill="#37474F"/>
<path d="M36.5833 23.5208C47.3354 23.5208 56.0833 32.5872 56.0833 43.7293V51.6864L21.4167 51.6875V53.1435C21.4167 61.899 28.22 69.0208 36.5833 69.0208C41.324 69.0208 45.7331 66.6343 48.5596 62.8112C49.6602 61.3227 51.3221 60.3531 53.1735 60.3531H54.8039C54.8039 60.3542 54.8039 60.3542 54.8039 60.3553C51.9396 68.1282 44.6119 73.3542 36.5833 73.3542C25.8312 73.3542 17.0833 64.2878 17.0833 53.1435V43.7304C17.0833 32.5872 25.8312 23.5208 36.5833 23.5208ZM21.4167 47.3542H51.75V43.7293C51.75 34.976 44.9466 27.8542 36.5833 27.8542C28.22 27.8542 21.4167 34.976 21.4167 43.7293V47.3542ZM36.5833 22.4375C25.2332 22.4375 16 31.9893 16 43.7293V53.1424C16 64.8847 25.2332 74.4375 36.5833 74.4375C45.068 74.4375 52.7986 68.9288 55.8211 60.7301L56.3585 59.2719L54.8039 59.2698H53.1735C51.0491 59.2698 49.0503 60.326 47.6886 62.1677C45.0171 65.7806 40.8657 67.9375 36.5833 67.9375C28.818 67.9375 22.5 61.301 22.5 53.1435V52.7708L56.0833 52.7698H57.1666V51.6864V43.7293C57.1666 31.9893 47.9334 22.4375 36.5833 22.4375ZM22.5 46.2708V43.7293C22.5 35.5729 28.818 28.9375 36.5833 28.9375C44.3486 28.9375 50.6666 35.5729 50.6666 43.7293V46.2708H22.5Z" fill="#4CAF50"/>
<path d="M7.91122 109.206C6.77012 109.206 5.78527 108.981 4.95668 108.531C4.13281 108.077 3.49834 107.43 3.05327 106.592C2.61293 105.75 2.39276 104.748 2.39276 103.588C2.39276 102.461 2.61529 101.476 3.06037 100.634C3.50545 99.786 4.13281 99.1278 4.94247 98.6591C5.75213 98.1856 6.7062 97.9489 7.80469 97.9489C8.5812 97.9489 9.29143 98.0696 9.93537 98.3111C10.5793 98.5526 11.1357 98.91 11.6044 99.3835C12.0732 99.857 12.4377 100.442 12.6982 101.138C12.9586 101.829 13.0888 102.622 13.0888 103.517V104.384H3.60724V102.366H9.85724C9.85251 101.997 9.76492 101.668 9.59446 101.379C9.42401 101.09 9.18963 100.866 8.89134 100.705C8.59777 100.539 8.25923 100.456 7.87571 100.456C7.48745 100.456 7.13944 100.544 6.83168 100.719C6.52391 100.889 6.28007 101.124 6.10014 101.422C5.92022 101.715 5.82552 102.049 5.81605 102.423V104.476C5.81605 104.921 5.90365 105.312 6.07884 105.648C6.25402 105.979 6.5026 106.237 6.82457 106.422C7.14654 106.607 7.53007 106.699 7.97514 106.699C8.28291 106.699 8.56226 106.656 8.81321 106.571C9.06416 106.486 9.27959 106.36 9.45952 106.195C9.63944 106.029 9.77438 105.825 9.86435 105.584L13.0533 105.676C12.9207 106.391 12.6295 107.014 12.1797 107.544C11.7346 108.07 11.1499 108.479 10.4254 108.773C9.70099 109.062 8.86293 109.206 7.91122 109.206ZM18.6609 98.0909L20.4577 101.685L22.3185 98.0909H25.82L22.7731 103.545L25.9336 109H22.4606L20.4577 105.378L18.5046 109H14.9819L18.1495 103.545L15.1381 98.0909H18.6609ZM28.4055 113.091V98.0909H31.843V99.9588H31.9496C32.0916 99.6274 32.2929 99.3078 32.5533 99C32.8184 98.6922 33.1546 98.4413 33.5618 98.2472C33.9737 98.0483 34.4661 97.9489 35.0391 97.9489C35.7966 97.9489 36.5045 98.1477 37.1626 98.5455C37.8255 98.9432 38.3606 99.5563 38.7678 100.385C39.175 101.214 39.3786 102.269 39.3786 103.553C39.3786 104.788 39.1821 105.823 38.7891 106.656C38.4008 107.49 37.8752 108.115 37.2124 108.531C36.5542 108.948 35.8227 109.156 35.0178 109.156C34.4685 109.156 33.9927 109.066 33.5902 108.886C33.1877 108.706 32.8492 108.47 32.5746 108.176C32.3047 107.883 32.0964 107.568 31.9496 107.232H31.8786V113.091H28.4055ZM31.8075 103.545C31.8075 104.133 31.8857 104.644 32.0419 105.08C32.2029 105.515 32.4325 105.854 32.7308 106.095C33.0339 106.332 33.3961 106.45 33.8175 106.45C34.2436 106.45 34.6058 106.332 34.9041 106.095C35.2024 105.854 35.4273 105.515 35.5788 105.08C35.7351 104.644 35.8132 104.133 35.8132 103.545C35.8132 102.958 35.7351 102.449 35.5788 102.018C35.4273 101.588 35.2024 101.254 34.9041 101.017C34.6106 100.78 34.2483 100.662 33.8175 100.662C33.3913 100.662 33.0291 100.778 32.7308 101.01C32.4325 101.242 32.2029 101.573 32.0419 102.004C31.8857 102.435 31.8075 102.949 31.8075 103.545ZM42.1985 109V98.0909H45.5721V100.08H45.6857C45.8846 99.3598 46.2089 98.8248 46.6587 98.4744C47.1085 98.1193 47.6317 97.9418 48.2283 97.9418C48.3893 97.9418 48.555 97.9536 48.7255 97.9773C48.896 97.9962 49.0546 98.027 49.2013 98.0696V101.088C49.0356 101.031 48.8178 100.986 48.5479 100.953C48.2828 100.92 48.046 100.903 47.8377 100.903C47.4258 100.903 47.0541 100.996 46.7227 101.18C46.396 101.36 46.1379 101.614 45.9485 101.94C45.7638 102.262 45.6715 102.641 45.6715 103.077V109H42.1985ZM56.1495 109.206C55.0084 109.206 54.0236 108.981 53.195 108.531C52.3711 108.077 51.7366 107.43 51.2915 106.592C50.8512 105.75 50.631 104.748 50.631 103.588C50.631 102.461 50.8536 101.476 51.2987 100.634C51.7437 99.786 52.3711 99.1278 53.1808 98.6591C53.9904 98.1856 54.9445 97.9489 56.043 97.9489C56.8195 97.9489 57.5297 98.0696 58.1737 98.3111C58.8176 98.5526 59.3739 98.91 59.8427 99.3835C60.3114 99.857 60.676 100.442 60.9364 101.138C61.1969 101.829 61.3271 102.622 61.3271 103.517V104.384H51.8455V102.366H58.0955C58.0908 101.997 58.0032 101.668 57.8327 101.379C57.6623 101.09 57.4279 100.866 57.1296 100.705C56.8361 100.539 56.4975 100.456 56.114 100.456C55.7257 100.456 55.3777 100.544 55.07 100.719C54.7622 100.889 54.5183 101.124 54.3384 101.422C54.1585 101.715 54.0638 102.049 54.0543 102.423V104.476C54.0543 104.921 54.1419 105.312 54.3171 105.648C54.4923 105.979 54.7409 106.237 55.0629 106.422C55.3848 106.607 55.7683 106.699 56.2134 106.699C56.5212 106.699 56.8005 106.656 57.0515 106.571C57.3024 106.486 57.5179 106.36 57.6978 106.195C57.8777 106.029 58.0127 105.825 58.1026 105.584L61.2915 105.676C61.159 106.391 60.8678 107.014 60.418 107.544C59.9729 108.07 59.3881 108.479 58.6637 108.773C57.9393 109.062 57.1012 109.206 56.1495 109.206ZM73.625 101.422L70.4361 101.507C70.4029 101.28 70.313 101.079 70.1662 100.903C70.0194 100.723 69.8277 100.584 69.5909 100.484C69.3589 100.38 69.089 100.328 68.7812 100.328C68.3788 100.328 68.0355 100.409 67.7514 100.57C67.4721 100.731 67.3348 100.948 67.3395 101.223C67.3348 101.436 67.42 101.621 67.5952 101.777C67.7751 101.933 68.0947 102.059 68.554 102.153L70.6562 102.551C71.7453 102.759 72.5549 103.105 73.0852 103.588C73.6203 104.071 73.8902 104.71 73.8949 105.506C73.8902 106.254 73.6676 106.905 73.2273 107.459C72.7917 108.013 72.1951 108.444 71.4375 108.751C70.6799 109.054 69.8134 109.206 68.8381 109.206C67.2803 109.206 66.0516 108.886 65.152 108.247C64.2571 107.603 63.7457 106.741 63.6179 105.662L67.0483 105.577C67.1241 105.974 67.3205 106.277 67.6378 106.486C67.955 106.694 68.3598 106.798 68.8523 106.798C69.2973 106.798 69.6596 106.715 69.9389 106.55C70.2183 106.384 70.3603 106.164 70.3651 105.889C70.3603 105.643 70.2514 105.446 70.0384 105.3C69.8253 105.148 69.4915 105.03 69.0369 104.945L67.1335 104.582C66.0398 104.384 65.2254 104.017 64.6903 103.482C64.1553 102.942 63.8902 102.255 63.8949 101.422C63.8902 100.693 64.0843 100.07 64.4773 99.554C64.8703 99.0331 65.429 98.6354 66.1534 98.3608C66.8778 98.0862 67.7325 97.9489 68.7173 97.9489C70.1946 97.9489 71.3594 98.259 72.2116 98.8793C73.0639 99.4948 73.535 100.342 73.625 101.422ZM86.1289 101.422L82.94 101.507C82.9068 101.28 82.8169 101.079 82.6701 100.903C82.5233 100.723 82.3316 100.584 82.0948 100.484C81.8628 100.38 81.5929 100.328 81.2852 100.328C80.8827 100.328 80.5394 100.409 80.2553 100.57C79.976 100.731 79.8387 100.948 79.8434 101.223C79.8387 101.436 79.9239 101.621 80.0991 101.777C80.279 101.933 80.5986 102.059 81.0579 102.153L83.1602 102.551C84.2492 102.759 85.0588 103.105 85.5891 103.588C86.1242 104.071 86.3941 104.71 86.3988 105.506C86.3941 106.254 86.1715 106.905 85.7312 107.459C85.2956 108.013 84.699 108.444 83.9414 108.751C83.1838 109.054 82.3174 109.206 81.342 109.206C79.7842 109.206 78.5555 108.886 77.6559 108.247C76.761 107.603 76.2496 106.741 76.1218 105.662L79.5522 105.577C79.628 105.974 79.8245 106.277 80.1417 106.486C80.4589 106.694 80.8638 106.798 81.3562 106.798C81.8013 106.798 82.1635 106.715 82.4428 106.55C82.7222 106.384 82.8642 106.164 82.869 105.889C82.8642 105.643 82.7553 105.446 82.5423 105.3C82.3292 105.148 81.9954 105.03 81.5408 104.945L79.6374 104.582C78.5437 104.384 77.7293 104.017 77.1942 103.482C76.6592 102.942 76.3941 102.255 76.3988 101.422C76.3941 100.693 76.5882 100.07 76.9812 99.554C77.3742 99.0331 77.9329 98.6354 78.6573 98.3608C79.3817 98.0862 80.2364 97.9489 81.2212 97.9489C82.6985 97.9489 83.8633 98.259 84.7156 98.8793C85.5678 99.4948 86.0389 100.342 86.1289 101.422Z" fill="#37474F"/>
<path d="M91.0618 109.206C90.5504 109.206 90.1125 109.026 89.7479 108.666C89.388 108.306 89.2105 107.871 89.2152 107.359C89.2105 106.857 89.388 106.429 89.7479 106.074C90.1125 105.714 90.5504 105.534 91.0618 105.534C91.5447 105.534 91.9709 105.714 92.3402 106.074C92.7143 106.429 92.9036 106.857 92.9084 107.359C92.9036 107.7 92.8137 108.01 92.6385 108.29C92.468 108.569 92.2431 108.792 91.9638 108.957C91.6892 109.123 91.3885 109.206 91.0618 109.206ZM96.2024 98.0909H99.6754V109.455C99.6754 110.354 99.4908 111.069 99.1214 111.599C98.7569 112.13 98.2408 112.511 97.5732 112.743C96.9055 112.975 96.1172 113.091 95.2081 113.091C95.085 113.091 94.969 113.089 94.8601 113.084C94.7512 113.079 94.6328 113.074 94.505 113.07V110.435C94.5902 110.444 94.666 110.451 94.7322 110.456C94.7985 110.461 94.8648 110.463 94.9311 110.463C95.4093 110.463 95.7408 110.373 95.9254 110.193C96.1101 110.018 96.2024 109.748 96.2024 109.384V98.0909ZM97.9354 96.8196C97.4477 96.8196 97.0286 96.6586 96.6783 96.3366C96.3279 96.0099 96.1527 95.617 96.1527 95.1577C96.1527 94.7031 96.3279 94.3149 96.6783 93.9929C97.0286 93.6662 97.4477 93.5028 97.9354 93.5028C98.4278 93.5028 98.8468 93.6662 99.1925 93.9929C99.5429 94.3149 99.718 94.7031 99.718 95.1577C99.718 95.617 99.5429 96.0099 99.1925 96.3366C98.8468 96.6586 98.4278 96.8196 97.9354 96.8196ZM112.41 101.422L109.221 101.507C109.188 101.28 109.098 101.079 108.951 100.903C108.805 100.723 108.613 100.584 108.376 100.484C108.144 100.38 107.874 100.328 107.566 100.328C107.164 100.328 106.821 100.409 106.537 100.57C106.257 100.731 106.12 100.948 106.125 101.223C106.12 101.436 106.205 101.621 106.38 101.777C106.56 101.933 106.88 102.059 107.339 102.153L109.441 102.551C110.53 102.759 111.34 103.105 111.87 103.588C112.405 104.071 112.675 104.71 112.68 105.506C112.675 106.254 112.453 106.905 112.012 107.459C111.577 108.013 110.98 108.444 110.223 108.751C109.465 109.054 108.599 109.206 107.623 109.206C106.065 109.206 104.837 108.886 103.937 108.247C103.042 107.603 102.531 106.741 102.403 105.662L105.833 105.577C105.909 105.974 106.106 106.277 106.423 106.486C106.74 106.694 107.145 106.798 107.637 106.798C108.083 106.798 108.445 106.715 108.724 106.55C109.003 106.384 109.145 106.164 109.15 105.889C109.145 105.643 109.037 105.446 108.824 105.3C108.61 105.148 108.277 105.03 107.822 104.945L105.919 104.582C104.825 104.384 104.011 104.017 103.475 103.482C102.94 102.942 102.675 102.255 102.68 101.422C102.675 100.693 102.869 100.07 103.262 99.554C103.655 99.0331 104.214 98.6354 104.939 98.3608C105.663 98.0862 106.518 97.9489 107.502 97.9489C108.98 97.9489 110.145 98.259 110.997 98.8793C111.849 99.4948 112.32 100.342 112.41 101.422Z" fill="#4CAE50"/>
</g>
<defs>
<clipPath id="clip0_35_24">
<rect width="115" height="115" fill="white"/>
</clipPath>
</defs>
</svg>
