<svg width="115" height="115" viewBox="0 0 115 115" fill="none" xmlns="http://www.w3.org/2000/svg">
<path d="M85.9999 32.8583C85.9999 68.7333 54.5 79.5833 54.5 79.5833C54.5 79.5833 23 68.7333 23 32.8583C23 28.4833 23.35 24.8083 23.7 21.8333C24.225 17.4583 27.2 13.9583 31.4 12.9083C36.825 11.3333 45.4 9.58331 54.5 9.58331C63.6 9.58331 72.1749 11.3333 77.7749 12.9083C81.9749 13.9583 84.9499 17.6333 85.4749 21.8333C85.6499 24.8083 85.9999 28.6583 85.9999 32.8583Z" fill="#5D4037"/>
<path d="M54.5 14.8333C63.075 14.8333 71.1249 16.5833 76.3749 17.9833C78.4749 18.5083 79.8749 20.2583 80.2249 22.5333C80.5749 25.8583 80.7499 29.3583 80.7499 32.8583C80.7499 60.1583 60.625 71.1833 54.5 73.8083C48.375 71.0083 28.25 59.9833 28.25 32.8583C28.25 29.3583 28.425 25.8583 28.775 22.5333C28.95 20.2583 30.525 18.5083 32.625 17.9833C37.875 16.5833 45.925 14.8333 54.5 14.8333ZM54.5 9.58331C45.4 9.58331 36.825 11.3333 31.225 12.9083C27.2 13.9583 24.05 17.6333 23.7 21.8333C23.35 24.8083 23 28.6583 23 32.8583C23 68.7333 54.5 79.5833 54.5 79.5833C54.5 79.5833 85.9999 68.7333 85.9999 32.8583C85.9999 28.4833 85.6499 24.8083 85.2999 21.8333C84.7749 17.4583 81.7999 13.9583 77.5999 12.9083C72.1749 11.3333 63.6 9.58331 54.5 9.58331Z" fill="#4CAF50"/>
<path d="M52.7499 51.5839H56.2499V65.5839H52.7499V51.5839Z" fill="#DCEDC8"/>
<path d="M54.4999 20.0829C54.4999 20.0829 43.9999 28.8329 43.9999 42.8329C43.9999 51.9329 49.7749 57.7079 52.7499 60.3329L54.4999 55.0829L56.2499 60.3329C59.2249 57.7079 64.9999 51.9329 64.9999 42.8329C64.9999 28.8329 54.4999 20.0829 54.4999 20.0829Z" fill="#4CAF50"/>
<path d="M54.4999 20.0829C54.4999 20.0829 43.9999 28.8329 43.9999 42.8329C43.9999 51.9329 49.7749 57.7079 52.7499 60.3329L54.4999 55.0829V20.0829Z" fill="#81C784"/>
<path d="M8.75258 110L10.6326 96H12.2526L15.9326 102.94L19.5726 96H21.2126L23.0726 110H21.0726L19.6526 98.58L20.1526 98.66L15.9526 106.68L11.6726 98.66L12.1726 98.58L10.7526 110H8.75258ZM30.4887 110.2C29.462 110.2 28.5853 109.973 27.8587 109.52C27.1387 109.06 26.5853 108.447 26.1987 107.68C25.8187 106.907 25.6287 106.047 25.6287 105.1C25.6287 104.153 25.8187 103.297 26.1987 102.53C26.5853 101.757 27.1387 101.143 27.8587 100.69C28.5853 100.23 29.462 100 30.4887 100C31.5087 100 32.382 100.23 33.1087 100.69C33.8353 101.143 34.3887 101.757 34.7687 102.53C35.1553 103.297 35.3487 104.153 35.3487 105.1C35.3487 106.047 35.1553 106.907 34.7687 107.68C34.3887 108.447 33.8353 109.06 33.1087 109.52C32.382 109.973 31.5087 110.2 30.4887 110.2ZM30.4887 108.6C31.462 108.6 32.2087 108.293 32.7287 107.68C33.2487 107.06 33.5087 106.2 33.5087 105.1C33.5087 104 33.2487 103.143 32.7287 102.53C32.2087 101.91 31.462 101.6 30.4887 101.6C29.522 101.6 28.7753 101.91 28.2487 102.53C27.7287 103.143 27.4687 104 27.4687 105.1C27.4687 106.2 27.7287 107.06 28.2487 107.68C28.7753 108.293 29.522 108.6 30.4887 108.6ZM38.4048 110V100.2H39.8048L40.1648 102.08L39.4648 101.78C40.1248 101.047 40.7681 100.567 41.3948 100.34C42.0281 100.113 42.6448 100 43.2448 100C44.6781 100 45.7014 100.413 46.3148 101.24C46.9348 102.067 47.2448 103.187 47.2448 104.6V110H45.4448V104.6C45.4448 103.56 45.2514 102.8 44.8648 102.32C44.4781 101.84 43.8181 101.6 42.8848 101.6C42.2248 101.6 41.6181 101.747 41.0648 102.04C40.5181 102.327 40.1581 102.787 39.9848 103.42L40.2048 102.32V110H38.4048ZM54.7366 115C53.8433 115 53.0433 114.89 52.3366 114.67C51.6366 114.45 51.0833 114.123 50.6766 113.69C50.2766 113.257 50.0766 112.72 50.0766 112.08C50.0766 111.547 50.2266 111.087 50.5266 110.7C50.8333 110.32 51.25 110.013 51.7766 109.78C51.4633 109.627 51.2233 109.447 51.0566 109.24C50.8966 109.027 50.8166 108.793 50.8166 108.54C50.8166 108.24 50.9066 107.97 51.0866 107.73C51.2733 107.483 51.57 107.28 51.9766 107.12C51.43 106.78 51.01 106.323 50.7166 105.75C50.4233 105.17 50.2766 104.527 50.2766 103.82C50.2766 103.107 50.4366 102.463 50.7566 101.89C51.0766 101.31 51.5366 100.85 52.1366 100.51C52.7433 100.17 53.47 100 54.3166 100C54.77 100 55.1966 100.067 55.5966 100.2C56.0033 100.333 56.3766 100.52 56.7166 100.76C57.0166 100.587 57.37 100.443 57.7766 100.33C58.19 100.217 58.65 100.16 59.1566 100.16C59.19 100.16 59.2166 100.16 59.2366 100.16C59.2633 100.16 59.29 100.16 59.3166 100.16L59.0966 101.36C59.0166 101.36 58.94 101.36 58.8666 101.36C58.7933 101.36 58.7166 101.36 58.6366 101.36C58.57 101.36 58.4166 101.37 58.1766 101.39C57.9366 101.41 57.7166 101.447 57.5166 101.5C57.79 101.82 58 102.18 58.1466 102.58C58.3 102.973 58.3766 103.387 58.3766 103.82C58.3766 104.567 58.2133 105.237 57.8866 105.83C57.5666 106.417 57.1033 106.883 56.4966 107.23C55.89 107.57 55.1633 107.74 54.3166 107.74C54.0766 107.74 53.8466 107.727 53.6266 107.7C53.4066 107.667 53.1966 107.62 52.9966 107.56C52.69 107.66 52.5366 107.833 52.5366 108.08C52.5366 108.227 52.6233 108.357 52.7966 108.47C52.97 108.577 53.25 108.66 53.6366 108.72L56.2566 109.14C57.3166 109.307 58.1333 109.613 58.7066 110.06C59.2866 110.507 59.5766 111.14 59.5766 111.96C59.5766 112.64 59.3766 113.203 58.9766 113.65C58.5833 114.103 58.0233 114.44 57.2966 114.66C56.57 114.887 55.7166 115 54.7366 115ZM54.8966 113.4C55.8166 113.4 56.5233 113.28 57.0166 113.04C57.51 112.807 57.7566 112.46 57.7566 112C57.7566 111.64 57.6 111.357 57.2866 111.15C56.98 110.943 56.5366 110.787 55.9566 110.68L53.1666 110.21C52.8 110.37 52.48 110.583 52.2066 110.85C51.9333 111.123 51.7966 111.44 51.7966 111.8C51.7966 112.36 52.0766 112.767 52.6366 113.02C53.2033 113.273 53.9566 113.4 54.8966 113.4ZM54.3166 106.3C55.0766 106.3 55.6566 106.073 56.0566 105.62C56.4566 105.16 56.6566 104.567 56.6566 103.84C56.6566 103.14 56.4566 102.567 56.0566 102.12C55.6566 101.667 55.0766 101.44 54.3166 101.44C53.5566 101.44 52.98 101.667 52.5866 102.12C52.1933 102.567 51.9966 103.14 51.9966 103.84C51.9966 104.567 52.1933 105.16 52.5866 105.62C52.98 106.073 53.5566 106.3 54.3166 106.3ZM66.2176 110.2C65.1909 110.2 64.3142 109.973 63.5876 109.52C62.8676 109.06 62.3142 108.447 61.9276 107.68C61.5476 106.907 61.3576 106.047 61.3576 105.1C61.3576 104.153 61.5476 103.297 61.9276 102.53C62.3142 101.757 62.8676 101.143 63.5876 100.69C64.3142 100.23 65.1909 100 66.2176 100C67.2376 100 68.1109 100.23 68.8376 100.69C69.5642 101.143 70.1176 101.757 70.4976 102.53C70.8842 103.297 71.0776 104.153 71.0776 105.1C71.0776 106.047 70.8842 106.907 70.4976 107.68C70.1176 108.447 69.5642 109.06 68.8376 109.52C68.1109 109.973 67.2376 110.2 66.2176 110.2ZM66.2176 108.6C67.1909 108.6 67.9376 108.293 68.4576 107.68C68.9776 107.06 69.2376 106.2 69.2376 105.1C69.2376 104 68.9776 103.143 68.4576 102.53C67.9376 101.91 67.1909 101.6 66.2176 101.6C65.2509 101.6 64.5042 101.91 63.9776 102.53C63.4576 103.143 63.1976 104 63.1976 105.1C63.1976 106.2 63.4576 107.06 63.9776 107.68C64.5042 108.293 65.2509 108.6 66.2176 108.6ZM74.1426 110V96H79.3226C80.6759 96 81.8759 96.2767 82.9226 96.83C83.9692 97.3833 84.7892 98.1833 85.3826 99.23C85.9826 100.27 86.2826 101.527 86.2826 103C86.2826 104.473 85.9826 105.733 85.3826 106.78C84.7892 107.82 83.9692 108.617 82.9226 109.17C81.8759 109.723 80.6759 110 79.3226 110H74.1426ZM76.0426 108.28H79.3226C80.3892 108.28 81.2826 108.06 82.0026 107.62C82.7292 107.173 83.2759 106.553 83.6426 105.76C84.0159 104.967 84.2026 104.047 84.2026 103C84.2026 101.953 84.0159 101.033 83.6426 100.24C83.2759 99.4467 82.7292 98.83 82.0026 98.39C81.2826 97.9433 80.3892 97.72 79.3226 97.72H76.0426V108.28ZM89.8738 110V96H94.2938C95.5472 96 96.5305 96.2833 97.2438 96.85C97.9572 97.41 98.3138 98.2667 98.3138 99.42C98.3138 100.2 98.1438 100.887 97.8038 101.48C97.4638 102.073 96.9538 102.46 96.2738 102.64L96.5538 102.32C97.5272 102.48 98.2805 102.87 98.8138 103.49C99.3472 104.103 99.6138 104.94 99.6138 106C99.6138 107.227 99.2172 108.2 98.4238 108.92C97.6372 109.64 96.5472 110 95.1538 110H89.8738ZM91.7738 108.28H94.9938C95.7672 108.28 96.3838 108.087 96.8438 107.7C97.3038 107.313 97.5338 106.727 97.5338 105.94C97.5338 105.06 97.2972 104.44 96.8238 104.08C96.3572 103.72 95.7472 103.54 94.9938 103.54H91.7738V108.28ZM91.7738 101.82H94.0538C94.7338 101.82 95.2872 101.683 95.7138 101.41C96.1405 101.137 96.3538 100.587 96.3538 99.76C96.3538 98.94 96.1405 98.3933 95.7138 98.12C95.2872 97.84 94.7338 97.7 94.0538 97.7H91.7738V101.82Z" fill="#5D4037"/>
</svg>
