<svg width="115" height="115" viewBox="0 0 115 115" fill="none" xmlns="http://www.w3.org/2000/svg">
<g clip-path="url(#clip0_28_11)">
<path d="M43.1274 68.8607V80.8542L52.6963 80.8422V68.8726L47.919 73.6763L43.1274 68.8607Z" fill="#B71C1C"/>
<path d="M111.612 48.369C111.188 47.8396 109.6 47.5209 109.6 47.5209L107.693 51.3351L107.904 47.0968C107.904 47.0968 96.3532 42.4346 87.1365 40.2088C77.9197 37.9831 71.3719 37.1158 67.8548 37.0319C65.3104 36.9697 60.4349 37.2428 60.4349 37.2428L64.5677 41.1624C64.5677 41.1624 59.3759 39.0421 57.4689 38.3017C55.5618 37.5614 52.5957 37.559 51.1103 37.4536C49.6273 37.3482 48.3551 37.9831 48.3551 37.9831C48.3551 37.9831 46.9775 39.042 50.1568 46.1409C52.7634 51.9628 59.0669 55.6404 61.2543 56.7784C47.0781 53.7022 45.4945 39.9956 45.4945 39.9956C45.4945 39.9956 36.8623 39.9069 24.5142 44.2338C10.5608 49.1237 2.26166 58.5394 2.26166 58.5394C2.26166 58.5394 13.2825 54.8306 22.6071 57.3726C31.9317 59.9146 35.777 66.448 35.777 66.448L36.0333 59.2437H43.0675L48.4605 65.7436L52.6724 59.33H59.7904C59.7904 59.33 59.8264 59.33 59.8767 59.3276V73.6523C59.8767 73.6523 64.7019 69.6632 67.9554 68.0748C72.2991 65.9545 82.3664 66.5918 82.3664 66.5918C82.3664 66.5918 82.2058 65.4657 81.6117 64.275C80.7683 62.5883 82.9845 62.0349 82.9845 62.0349C82.9845 62.0349 102.817 57.6912 105.041 57.2672C107.266 56.8431 108.855 55.8896 109.384 55.3601C109.914 54.8306 111.397 51.1218 111.715 50.6978C112.036 50.2761 112.036 48.8985 111.612 48.369ZM50.7917 41.0569C51.3211 40.2088 52.912 39.8902 55.3485 41.0569C58.2235 42.4322 61.7071 46.9914 61.7071 46.9914L58.741 45.6138L60.2241 48.2636L57.5743 46.7806L59.9054 50.1707L58.317 49.7466L60.4373 53.2422C51.2157 47.945 50.2622 41.9051 50.7917 41.0569ZM90.8452 46.2487L89.2568 47.4131C89.2568 47.4131 82.8982 48.2612 81.2044 48.1558C79.5081 48.0504 78.4492 45.506 78.4492 45.506L74.9537 43.3857L90.8452 46.2487ZM78.8708 61.0837C77.7041 62.0373 78.7654 64.3684 78.7654 64.3684C77.177 63.204 75.2675 60.9783 76.9638 59.7061C78.66 58.4339 91.056 56.8455 91.056 56.8455C91.056 56.8455 80.0352 60.1302 78.8708 61.0837Z" fill="#B71C1C"/>
<path d="M5.25401 111V100.091H6.87333V101.795H7.01538C7.24265 101.213 7.6096 100.761 8.11623 100.439C8.62286 100.112 9.23128 99.9489 9.94151 99.9489C10.6612 99.9489 11.2602 100.112 11.7384 100.439C12.2213 100.761 12.5978 101.213 12.8676 101.795H12.9813C13.2606 101.232 13.6797 100.785 14.2384 100.453C14.7971 100.117 15.4671 99.9489 16.2483 99.9489C17.2237 99.9489 18.0215 100.254 18.6418 100.865C19.2621 101.471 19.5722 102.416 19.5722 103.699V111H17.8961V103.699C17.8961 102.894 17.6759 102.319 17.2355 101.973C16.7952 101.627 16.2767 101.455 15.6801 101.455C14.9131 101.455 14.3189 101.687 13.8975 102.151C13.4761 102.61 13.2654 103.192 13.2654 103.898V111H11.5608V103.528C11.5608 102.908 11.3596 102.409 10.9571 102.03C10.5547 101.646 10.0362 101.455 9.40174 101.455C8.96613 101.455 8.55894 101.571 8.18015 101.803C7.8061 102.035 7.50307 102.357 7.27106 102.768C7.04378 103.176 6.93015 103.647 6.93015 104.182V111H5.25401ZM28.2686 111.227C27.2838 111.227 26.4197 110.993 25.6763 110.524C24.9377 110.055 24.36 109.4 23.9434 108.557C23.5314 107.714 23.3255 106.729 23.3255 105.602C23.3255 104.466 23.5314 103.474 23.9434 102.626C24.36 101.779 24.9377 101.121 25.6763 100.652C26.4197 100.183 27.2838 99.9489 28.2686 99.9489C29.2535 99.9489 30.1152 100.183 30.8539 100.652C31.5972 101.121 32.1749 101.779 32.5868 102.626C33.0035 103.474 33.2118 104.466 33.2118 105.602C33.2118 106.729 33.0035 107.714 32.5868 108.557C32.1749 109.4 31.5972 110.055 30.8539 110.524C30.1152 110.993 29.2535 111.227 28.2686 111.227ZM28.2686 109.722C29.0167 109.722 29.6323 109.53 30.1152 109.146C30.5982 108.763 30.9557 108.259 31.1877 107.634C31.4197 107.009 31.5357 106.331 31.5357 105.602C31.5357 104.873 31.4197 104.194 31.1877 103.564C30.9557 102.934 30.5982 102.425 30.1152 102.037C29.6323 101.649 29.0167 101.455 28.2686 101.455C27.5205 101.455 26.905 101.649 26.4221 102.037C25.9391 102.425 25.5816 102.934 25.3496 103.564C25.1176 104.194 25.0016 104.873 25.0016 105.602C25.0016 106.331 25.1176 107.009 25.3496 107.634C25.5816 108.259 25.9391 108.763 26.4221 109.146C26.905 109.53 27.5205 109.722 28.2686 109.722ZM38.6466 104.438V111H36.9704V100.091H38.5897V101.795H38.7318C38.9875 101.241 39.3757 100.796 39.8966 100.46C40.4174 100.119 41.0897 99.9489 41.9136 99.9489C42.6522 99.9489 43.2985 100.1 43.8525 100.403C44.4065 100.702 44.8374 101.156 45.1451 101.767C45.4529 102.373 45.6068 103.14 45.6068 104.068V111H43.9306V104.182C43.9306 103.325 43.7081 102.657 43.263 102.179C42.818 101.696 42.2072 101.455 41.4306 101.455C40.8956 101.455 40.4174 101.571 39.996 101.803C39.5793 102.035 39.2502 102.373 39.0088 102.818C38.7673 103.263 38.6466 103.803 38.6466 104.438ZM54.273 115.318C53.4634 115.318 52.7674 115.214 52.185 115.006C51.6026 114.802 51.1173 114.532 50.729 114.196C50.3455 113.865 50.0401 113.509 49.8128 113.131L51.148 112.193C51.2996 112.392 51.4913 112.619 51.7233 112.875C51.9553 113.135 52.2726 113.36 52.675 113.55C53.0822 113.744 53.6149 113.841 54.273 113.841C55.1537 113.841 55.8805 113.628 56.4534 113.202C57.0264 112.776 57.3128 112.108 57.3128 111.199V108.983H57.1708C57.0477 109.182 56.8725 109.428 56.6452 109.722C56.4227 110.01 56.1007 110.268 55.6793 110.496C55.2626 110.718 54.6992 110.83 53.989 110.83C53.1083 110.83 52.3176 110.621 51.6168 110.205C50.9208 109.788 50.3692 109.182 49.962 108.386C49.5595 107.591 49.3583 106.625 49.3583 105.489C49.3583 104.371 49.5548 103.398 49.9478 102.57C50.3408 101.736 50.8876 101.092 51.5884 100.638C52.2891 100.179 53.0988 99.9489 54.0174 99.9489C54.7276 99.9489 55.291 100.067 55.7077 100.304C56.1291 100.536 56.4511 100.801 56.6736 101.099C56.9009 101.393 57.0761 101.634 57.1992 101.824H57.3696V100.091H58.989V111.312C58.989 112.25 58.7759 113.012 58.3497 113.599C57.9283 114.191 57.3602 114.625 56.6452 114.899C55.935 115.179 55.1443 115.318 54.273 115.318ZM54.2162 109.324C54.8886 109.324 55.4568 109.17 55.9208 108.862C56.3848 108.554 56.7375 108.112 56.979 107.534C57.2205 106.956 57.3412 106.265 57.3412 105.46C57.3412 104.674 57.2229 103.981 56.9861 103.379C56.7494 102.778 56.399 102.307 55.935 101.966C55.471 101.625 54.898 101.455 54.2162 101.455C53.506 101.455 52.9141 101.634 52.4407 101.994C51.9719 102.354 51.6192 102.837 51.3824 103.443C51.1504 104.049 51.0344 104.722 51.0344 105.46C51.0344 106.218 51.1528 106.888 51.3895 107.47C51.631 108.048 51.9861 108.502 52.4549 108.834C52.9283 109.161 53.5155 109.324 54.2162 109.324ZM67.689 111.227C66.7041 111.227 65.84 110.993 65.0966 110.524C64.358 110.055 63.7803 109.4 63.3637 108.557C62.9517 107.714 62.7458 106.729 62.7458 105.602C62.7458 104.466 62.9517 103.474 63.3637 102.626C63.7803 101.779 64.358 101.121 65.0966 100.652C65.84 100.183 66.7041 99.9489 67.689 99.9489C68.6738 99.9489 69.5355 100.183 70.2742 100.652C71.0176 101.121 71.5952 101.779 72.0071 102.626C72.4238 103.474 72.6321 104.466 72.6321 105.602C72.6321 106.729 72.4238 107.714 72.0071 108.557C71.5952 109.4 71.0176 110.055 70.2742 110.524C69.5355 110.993 68.6738 111.227 67.689 111.227ZM67.689 109.722C68.4371 109.722 69.0526 109.53 69.5355 109.146C70.0185 108.763 70.376 108.259 70.608 107.634C70.84 107.009 70.956 106.331 70.956 105.602C70.956 104.873 70.84 104.194 70.608 103.564C70.376 102.934 70.0185 102.425 69.5355 102.037C69.0526 101.649 68.4371 101.455 67.689 101.455C66.9408 101.455 66.3253 101.649 65.8424 102.037C65.3594 102.425 65.0019 102.934 64.7699 103.564C64.5379 104.194 64.4219 104.873 64.4219 105.602C64.4219 106.331 64.5379 107.009 64.7699 107.634C65.0019 108.259 65.3594 108.763 65.8424 109.146C66.3253 109.53 66.9408 109.722 67.689 109.722ZM80.8226 111.227C79.8377 111.227 78.9736 110.993 78.2302 110.524C77.4916 110.055 76.9139 109.4 76.4973 108.557C76.0853 107.714 75.8794 106.729 75.8794 105.602C75.8794 104.466 76.0853 103.474 76.4973 102.626C76.9139 101.779 77.4916 101.121 78.2302 100.652C78.9736 100.183 79.8377 99.9489 80.8226 99.9489C81.8074 99.9489 82.6691 100.183 83.4078 100.652C84.1512 101.121 84.7288 101.779 85.1407 102.626C85.5574 103.474 85.7657 104.466 85.7657 105.602C85.7657 106.729 85.5574 107.714 85.1407 108.557C84.7288 109.4 84.1512 110.055 83.4078 110.524C82.6691 110.993 81.8074 111.227 80.8226 111.227ZM80.8226 109.722C81.5707 109.722 82.1862 109.53 82.6691 109.146C83.1521 108.763 83.5096 108.259 83.7416 107.634C83.9736 107.009 84.0896 106.331 84.0896 105.602C84.0896 104.873 83.9736 104.194 83.7416 103.564C83.5096 102.934 83.1521 102.425 82.6691 102.037C82.1862 101.649 81.5707 101.455 80.8226 101.455C80.0744 101.455 79.4589 101.649 78.976 102.037C78.493 102.425 78.1355 102.934 77.9035 103.564C77.6715 104.194 77.5555 104.873 77.5555 105.602C77.5555 106.331 77.6715 107.009 77.9035 107.634C78.1355 108.259 78.493 108.763 78.976 109.146C79.4589 109.53 80.0744 109.722 80.8226 109.722ZM97.2516 102.534L95.7459 102.96C95.6512 102.709 95.5115 102.465 95.3269 102.229C95.147 101.987 94.9007 101.788 94.5882 101.632C94.2757 101.476 93.8757 101.398 93.388 101.398C92.7203 101.398 92.164 101.552 91.7189 101.859C91.2786 102.162 91.0584 102.548 91.0584 103.017C91.0584 103.434 91.2099 103.763 91.513 104.004C91.816 104.246 92.2895 104.447 92.9334 104.608L94.5527 105.006C95.5281 105.242 96.2549 105.605 96.7331 106.092C97.2114 106.575 97.4505 107.198 97.4505 107.96C97.4505 108.585 97.2705 109.144 96.9107 109.636C96.5556 110.129 96.0584 110.517 95.4192 110.801C94.78 111.085 94.0366 111.227 93.1891 111.227C92.0764 111.227 91.1555 110.986 90.4263 110.503C89.6971 110.02 89.2355 109.314 89.0414 108.386L90.6323 107.989C90.7838 108.576 91.0703 109.016 91.4917 109.31C91.9178 109.603 92.4741 109.75 93.1607 109.75C93.9419 109.75 94.5622 109.584 95.0215 109.253C95.4855 108.917 95.7175 108.514 95.7175 108.045C95.7175 107.667 95.5849 107.349 95.3198 107.094C95.0546 106.833 94.6474 106.639 94.0982 106.511L92.28 106.085C91.281 105.848 90.5471 105.482 90.0783 104.984C89.6143 104.482 89.3823 103.855 89.3823 103.102C89.3823 102.487 89.5551 101.942 89.9007 101.469C90.2511 100.995 90.727 100.624 91.3283 100.354C91.9344 100.084 92.6209 99.9489 93.388 99.9489C94.4675 99.9489 95.315 100.186 95.9306 100.659C96.5508 101.133 96.9912 101.758 97.2516 102.534ZM105.747 111.227C104.696 111.227 103.79 110.995 103.027 110.531C102.27 110.062 101.685 109.409 101.273 108.571C100.866 107.728 100.662 106.748 100.662 105.631C100.662 104.513 100.866 103.528 101.273 102.676C101.685 101.819 102.258 101.152 102.992 100.673C103.73 100.19 104.592 99.9489 105.577 99.9489C106.145 99.9489 106.706 100.044 107.26 100.233C107.814 100.422 108.318 100.73 108.773 101.156C109.228 101.578 109.59 102.136 109.86 102.832C110.13 103.528 110.264 104.385 110.264 105.403V106.114H101.855V104.665H108.56C108.56 104.049 108.437 103.5 108.191 103.017C107.949 102.534 107.603 102.153 107.154 101.874C106.709 101.594 106.183 101.455 105.577 101.455C104.909 101.455 104.332 101.62 103.844 101.952C103.361 102.278 102.989 102.705 102.729 103.23C102.469 103.756 102.338 104.319 102.338 104.92V105.886C102.338 106.71 102.48 107.409 102.764 107.982C103.053 108.55 103.453 108.983 103.965 109.281C104.476 109.575 105.07 109.722 105.747 109.722C106.188 109.722 106.585 109.66 106.941 109.537C107.3 109.409 107.611 109.22 107.871 108.969C108.131 108.713 108.333 108.396 108.475 108.017L110.094 108.472C109.924 109.021 109.637 109.504 109.235 109.92C108.832 110.332 108.335 110.654 107.743 110.886C107.151 111.114 106.486 111.227 105.747 111.227Z" fill="#B71C1C"/>
</g>
<defs>
<clipPath id="clip0_28_11">
<rect width="115" height="115" fill="white"/>
</clipPath>
</defs>
</svg>
