<svg width="600" height="200" viewBox="0 0 600 200" fill="none" xmlns="http://www.w3.org/2000/svg">
<g clip-path="url(#clip0_54_15)">
<g filter="url(#filter0_i_54_15)">
<path d="M143 100C143 130.928 117.928 156 87 156C56.0721 156 31 130.928 31 100C31 69.0721 56.0721 44 87 44C117.928 44 143 69.0721 143 100Z" stroke="#FFD700" stroke-width="8"/>
</g>
<g filter="url(#filter1_i_54_15)">
<path d="M48.6322 82.6364H58.1137L68.1279 107.068H68.5541L78.5683 82.6364H88.0498V119H80.5924V95.3317H80.2906L70.8801 118.822H65.8019L56.3914 95.2429H56.0896V119H48.6322V82.6364ZM94.3841 119V82.6364H102.072V97.6399H117.68V82.6364H125.35V119H117.68V103.979H102.072V119H94.3841Z" fill="#FFD700"/>
</g>
<g filter="url(#filter2_i_54_15)">
<path d="M163.276 86.8182H170.102L177.312 104.409H177.619L184.83 86.8182H191.656V113H186.287V95.9588H186.07L179.294 112.872H175.638L168.862 95.8949H168.645V113H163.276V86.8182ZM212.389 86.8182H217.924V103.821C217.924 105.73 217.468 107.401 216.556 108.832C215.653 110.264 214.387 111.381 212.76 112.182C211.132 112.974 209.235 113.371 207.071 113.371C204.897 113.371 202.997 112.974 201.369 112.182C199.741 111.381 198.475 110.264 197.572 108.832C196.669 107.401 196.217 105.73 196.217 103.821V86.8182H201.752V103.348C201.752 104.345 201.97 105.232 202.404 106.007C202.848 106.783 203.47 107.392 204.271 107.835C205.072 108.278 206.005 108.5 207.071 108.5C208.145 108.5 209.078 108.278 209.87 107.835C210.672 107.392 211.289 106.783 211.724 106.007C212.167 105.232 212.389 104.345 212.389 103.348V86.8182ZM222.479 113V86.8182H228.014V97.6207H239.251V86.8182H244.774V113H239.251V102.185H228.014V113H222.479ZM252.419 113.332C251.575 113.332 250.851 113.034 250.246 112.438C249.649 111.832 249.351 111.108 249.351 110.264C249.351 109.429 249.649 108.713 250.246 108.116C250.851 107.52 251.575 107.222 252.419 107.222C253.237 107.222 253.953 107.52 254.567 108.116C255.18 108.713 255.487 109.429 255.487 110.264C255.487 110.827 255.342 111.342 255.053 111.811C254.771 112.271 254.401 112.642 253.94 112.923C253.48 113.196 252.973 113.332 252.419 113.332ZM267.162 113V86.8182H272.698V97.6207H283.935V86.8182H289.458V113H283.935V102.185H272.698V113H267.162ZM298.534 113H292.603L301.641 86.8182H308.775L317.8 113H311.868L305.31 92.8011H305.105L298.534 113ZM298.164 102.709H312.175V107.03H298.164V102.709ZM334.557 94.348C334.455 93.3168 334.016 92.5156 333.24 91.9446C332.464 91.3736 331.412 91.0881 330.082 91.0881C329.179 91.0881 328.416 91.2159 327.794 91.4716C327.172 91.7188 326.695 92.0639 326.362 92.5071C326.038 92.9503 325.876 93.4531 325.876 94.0156C325.859 94.4844 325.957 94.8935 326.17 95.2429C326.392 95.5923 326.695 95.8949 327.078 96.1506C327.462 96.3977 327.905 96.6151 328.408 96.8026C328.911 96.9815 329.447 97.1349 330.018 97.2628L332.371 97.8253C333.513 98.081 334.561 98.4219 335.516 98.848C336.47 99.2741 337.297 99.7983 337.996 100.42C338.695 101.043 339.236 101.776 339.619 102.619C340.011 103.463 340.212 104.43 340.22 105.521C340.212 107.124 339.803 108.513 338.993 109.689C338.192 110.857 337.033 111.764 335.516 112.412C334.007 113.051 332.188 113.371 330.057 113.371C327.943 113.371 326.102 113.047 324.534 112.399C322.974 111.751 321.756 110.793 320.878 109.523C320.009 108.244 319.553 106.663 319.51 104.78H324.866C324.926 105.658 325.178 106.391 325.621 106.979C326.072 107.558 326.673 107.997 327.423 108.295C328.182 108.585 329.038 108.73 329.993 108.73C330.93 108.73 331.744 108.594 332.435 108.321C333.134 108.048 333.675 107.669 334.058 107.183C334.442 106.697 334.634 106.139 334.634 105.509C334.634 104.92 334.459 104.426 334.109 104.026C333.768 103.625 333.266 103.284 332.601 103.003C331.945 102.722 331.139 102.466 330.185 102.236L327.334 101.52C325.126 100.983 323.384 100.143 322.105 99.0014C320.827 97.8594 320.192 96.321 320.2 94.3864C320.192 92.8011 320.614 91.4162 321.466 90.2315C322.327 89.0469 323.507 88.1222 325.007 87.4574C326.507 86.7926 328.212 86.4602 330.121 86.4602C332.064 86.4602 333.76 86.7926 335.209 87.4574C336.666 88.1222 337.8 89.0469 338.609 90.2315C339.419 91.4162 339.837 92.7884 339.862 94.348H334.557ZM349.479 86.8182V113H343.944V86.8182H349.479ZM354.033 113V86.8182H364.516C366.442 86.8182 368.049 87.1037 369.336 87.6747C370.623 88.2457 371.59 89.0384 372.238 90.0526C372.886 91.0582 373.21 92.2173 373.21 93.5298C373.21 94.5526 373.005 95.4517 372.596 96.2273C372.187 96.9943 371.624 97.625 370.908 98.1193C370.201 98.6051 369.391 98.9503 368.479 99.1548V99.4105C369.477 99.4531 370.41 99.7344 371.279 100.254C372.157 100.774 372.869 101.503 373.414 102.44C373.96 103.369 374.232 104.477 374.232 105.764C374.232 107.153 373.887 108.393 373.197 109.484C372.515 110.567 371.505 111.423 370.167 112.054C368.829 112.685 367.18 113 365.219 113H354.033ZM359.569 108.474H364.082C365.624 108.474 366.749 108.18 367.457 107.592C368.164 106.996 368.518 106.203 368.518 105.214C368.518 104.49 368.343 103.851 367.994 103.297C367.644 102.743 367.146 102.308 366.498 101.993C365.859 101.678 365.096 101.52 364.21 101.52H359.569V108.474ZM359.569 97.7741H363.673C364.431 97.7741 365.104 97.642 365.692 97.3778C366.289 97.1051 366.758 96.7216 367.099 96.2273C367.448 95.733 367.623 95.1406 367.623 94.4503C367.623 93.5043 367.286 92.7415 366.613 92.1619C365.948 91.5824 365.002 91.2926 363.775 91.2926H359.569V97.7741ZM390.679 113H384.747L393.786 86.8182H400.919L409.945 113H404.013L397.455 92.8011H397.25L390.679 113ZM390.308 102.709H404.32V107.03H390.308V102.709ZM413.096 113V86.8182H418.631V108.436H429.856V113H413.096ZM441.854 113V86.8182H452.183C454.161 86.8182 455.848 87.1719 457.246 87.8793C458.652 88.5781 459.722 89.571 460.455 90.858C461.196 92.1364 461.567 93.6406 461.567 95.3707C461.567 97.1094 461.192 98.6051 460.442 99.858C459.692 101.102 458.605 102.057 457.182 102.722C455.767 103.386 454.054 103.719 452.043 103.719H445.126V99.2699H451.148C452.205 99.2699 453.082 99.125 453.781 98.8352C454.48 98.5455 455 98.1108 455.341 97.5312C455.69 96.9517 455.865 96.2315 455.865 95.3707C455.865 94.5014 455.69 93.7685 455.341 93.1719C455 92.5753 454.476 92.1236 453.768 91.8168C453.07 91.5014 452.188 91.3438 451.122 91.3438H447.389V113H441.854ZM455.993 101.085L462.5 113H456.389L450.023 101.085H455.993ZM469.991 113H464.06L473.098 86.8182H480.232L489.257 113H483.325L476.767 92.8011H476.562L469.991 113ZM469.621 102.709H483.632V107.03H469.621V102.709ZM497.944 86.8182V113H492.408V86.8182H497.944ZM502.498 113V86.8182H520.14V91.3821H508.034V97.6207H519.233V102.185H508.034V108.436H520.191V113H502.498ZM529.054 113H523.122L532.161 86.8182H539.294L548.32 113H542.388L535.83 92.8011H535.625L529.054 113ZM528.683 102.709H542.695V107.03H528.683V102.709ZM573.37 86.8182V113H568.589L557.198 96.5213H557.006V113H551.471V86.8182H556.329L567.63 103.284H567.86V86.8182H573.37Z" fill="#FFD700"/>
</g>
</g>
<defs>
<filter id="filter0_i_54_15" x="27" y="40" width="120" height="124" filterUnits="userSpaceOnUse" color-interpolation-filters="sRGB">
<feFlood flood-opacity="0" result="BackgroundImageFix"/>
<feBlend mode="normal" in="SourceGraphic" in2="BackgroundImageFix" result="shape"/>
<feColorMatrix in="SourceAlpha" type="matrix" values="0 0 0 0 0 0 0 0 0 0 0 0 0 0 0 0 0 0 127 0" result="hardAlpha"/>
<feOffset dy="4"/>
<feGaussianBlur stdDeviation="2"/>
<feComposite in2="hardAlpha" operator="arithmetic" k2="-1" k3="1"/>
<feColorMatrix type="matrix" values="0 0 0 0 0 0 0 0 0 0 0 0 0 0 0 0 0 0 0.34 0"/>
<feBlend mode="normal" in2="shape" result="effect1_innerShadow_54_15"/>
</filter>
<filter id="filter1_i_54_15" x="48.6322" y="80.6364" width="76.7178" height="38.3636" filterUnits="userSpaceOnUse" color-interpolation-filters="sRGB">
<feFlood flood-opacity="0" result="BackgroundImageFix"/>
<feBlend mode="normal" in="SourceGraphic" in2="BackgroundImageFix" result="shape"/>
<feColorMatrix in="SourceAlpha" type="matrix" values="0 0 0 0 0 0 0 0 0 0 0 0 0 0 0 0 0 0 127 0" result="hardAlpha"/>
<feOffset dy="-2"/>
<feGaussianBlur stdDeviation="1"/>
<feComposite in2="hardAlpha" operator="arithmetic" k2="-1" k3="1"/>
<feColorMatrix type="matrix" values="0 0 0 0 0 0 0 0 0 0 0 0 0 0 0 0 0 0 0.4 0"/>
<feBlend mode="normal" in2="shape" result="effect1_innerShadow_54_15"/>
</filter>
<filter id="filter2_i_54_15" x="163.276" y="84.4602" width="410.094" height="28.9105" filterUnits="userSpaceOnUse" color-interpolation-filters="sRGB">
<feFlood flood-opacity="0" result="BackgroundImageFix"/>
<feBlend mode="normal" in="SourceGraphic" in2="BackgroundImageFix" result="shape"/>
<feColorMatrix in="SourceAlpha" type="matrix" values="0 0 0 0 0 0 0 0 0 0 0 0 0 0 0 0 0 0 127 0" result="hardAlpha"/>
<feOffset dy="-2"/>
<feGaussianBlur stdDeviation="1"/>
<feComposite in2="hardAlpha" operator="arithmetic" k2="-1" k3="1"/>
<feColorMatrix type="matrix" values="0 0 0 0 0 0 0 0 0 0 0 0 0 0 0 0 0 0 0.4 0"/>
<feBlend mode="normal" in2="shape" result="effect1_innerShadow_54_15"/>
</filter>
<clipPath id="clip0_54_15">
<rect width="600" height="200" fill="white"/>
</clipPath>
</defs>
</svg>
