<svg width="115" height="115" viewBox="0 0 115 115" fill="none" xmlns="http://www.w3.org/2000/svg">
<path d="M33.7917 95.4545V110H31.1355L24.8074 100.845H24.7008V110H21.6255V95.4545H24.3244L30.6028 104.602H30.7306V95.4545H33.7917ZM41.2047 110.213C40.1015 110.213 39.1474 109.979 38.3425 109.51C37.5423 109.036 36.9244 108.378 36.4888 107.536C36.0532 106.688 35.8354 105.705 35.8354 104.588C35.8354 103.461 36.0532 102.476 36.4888 101.634C36.9244 100.786 37.5423 100.128 38.3425 99.6591C39.1474 99.1856 40.1015 98.9489 41.2047 98.9489C42.3079 98.9489 43.2596 99.1856 44.0598 99.6591C44.8648 100.128 45.485 100.786 45.9206 101.634C46.3562 102.476 46.574 103.461 46.574 104.588C46.574 105.705 46.3562 106.688 45.9206 107.536C45.485 108.378 44.8648 109.036 44.0598 109.51C43.2596 109.979 42.3079 110.213 41.2047 110.213ZM41.2189 107.869C41.7208 107.869 42.1399 107.727 42.476 107.443C42.8122 107.154 43.0655 106.761 43.236 106.264C43.4112 105.767 43.4988 105.201 43.4988 104.567C43.4988 103.932 43.4112 103.366 43.236 102.869C43.0655 102.372 42.8122 101.979 42.476 101.69C42.1399 101.402 41.7208 101.257 41.2189 101.257C40.7123 101.257 40.2862 101.402 39.9405 101.69C39.5996 101.979 39.3416 102.372 39.1664 102.869C38.9959 103.366 38.9107 103.932 38.9107 104.567C38.9107 105.201 38.9959 105.767 39.1664 106.264C39.3416 106.761 39.5996 107.154 39.9405 107.443C40.2862 107.727 40.7123 107.869 41.2189 107.869ZM52.5613 110.178C51.7327 110.178 50.9822 109.964 50.3098 109.538C49.6422 109.107 49.1119 108.475 48.7189 107.642C48.3307 106.804 48.1365 105.777 48.1365 104.56C48.1365 103.31 48.3378 102.27 48.7402 101.442C49.1427 100.608 49.6777 99.9858 50.3453 99.5739C51.0177 99.1572 51.754 98.9489 52.5542 98.9489C53.165 98.9489 53.6739 99.053 54.0811 99.2614C54.4931 99.465 54.8245 99.7206 55.0755 100.028C55.3311 100.331 55.5253 100.63 55.6578 100.923H55.7502V95.4545H58.7686V110H55.7857V108.253H55.6578C55.5158 108.556 55.3146 108.857 55.0542 109.155C54.7985 109.448 54.4647 109.692 54.0527 109.886C53.6455 110.08 53.1484 110.178 52.5613 110.178ZM53.5201 107.77C54.0078 107.77 54.4197 107.637 54.7559 107.372C55.0968 107.102 55.3572 106.726 55.5371 106.243C55.7218 105.76 55.8141 105.194 55.8141 104.545C55.8141 103.897 55.7241 103.333 55.5442 102.855C55.3643 102.377 55.1039 102.008 54.763 101.747C54.4221 101.487 54.0078 101.357 53.5201 101.357C53.0229 101.357 52.6039 101.491 52.263 101.761C51.9221 102.031 51.664 102.405 51.4888 102.884C51.3136 103.362 51.226 103.916 51.226 104.545C51.226 105.18 51.3136 105.741 51.4888 106.229C51.6687 106.712 51.9268 107.09 52.263 107.365C52.6039 107.635 53.0229 107.77 53.5201 107.77ZM66.2278 110.213C65.1056 110.213 64.1397 109.986 63.3301 109.531C62.5252 109.072 61.9049 108.423 61.4693 107.585C61.0337 106.742 60.8159 105.746 60.8159 104.595C60.8159 103.473 61.0337 102.488 61.4693 101.641C61.9049 100.793 62.5181 100.133 63.3088 99.6591C64.1042 99.1856 65.037 98.9489 66.1071 98.9489C66.8268 98.9489 67.4967 99.0649 68.117 99.2969C68.742 99.5241 69.2865 99.8674 69.7505 100.327C70.2193 100.786 70.5839 101.364 70.8443 102.06C71.1047 102.751 71.2349 103.561 71.2349 104.489V105.32H62.0233V103.445H68.3869C68.3869 103.009 68.2922 102.623 68.1028 102.287C67.9134 101.951 67.6506 101.688 67.3145 101.499C66.983 101.304 66.5971 101.207 66.1568 101.207C65.6975 101.207 65.2903 101.314 64.9352 101.527C64.5848 101.735 64.3102 102.017 64.1113 102.372C63.9125 102.723 63.8107 103.113 63.8059 103.544V105.327C63.8059 105.866 63.9054 106.333 64.1042 106.726C64.3078 107.119 64.5943 107.422 64.9636 107.635C65.3329 107.848 65.7709 107.955 66.2775 107.955C66.6137 107.955 66.9215 107.907 67.2008 107.812C67.4802 107.718 67.7193 107.576 67.9181 107.386C68.117 107.197 68.2685 106.965 68.3727 106.69L71.171 106.875C71.0289 107.547 70.7377 108.134 70.2974 108.636C69.8618 109.134 69.2984 109.522 68.6071 109.801C67.9205 110.076 67.1274 110.213 66.2278 110.213Z" fill="#37474F"/>
<path d="M74.9778 110.185C74.5091 110.185 74.1066 110.019 73.7704 109.688C73.439 109.351 73.2733 108.949 73.2733 108.48C73.2733 108.016 73.439 107.618 73.7704 107.287C74.1066 106.955 74.5091 106.79 74.9778 106.79C75.4324 106.79 75.8301 106.955 76.171 107.287C76.5119 107.618 76.6824 108.016 76.6824 108.48C76.6824 108.793 76.6019 109.079 76.4409 109.339C76.2846 109.595 76.0787 109.801 75.823 109.957C75.5673 110.109 75.2856 110.185 74.9778 110.185ZM79.1664 99.0909H82.1919V110.54C82.1919 111.383 82.0262 112.064 81.6948 112.585C81.3633 113.106 80.8875 113.487 80.2672 113.729C79.6517 113.97 78.9154 114.091 78.0584 114.091C77.9542 114.091 77.8548 114.089 77.7601 114.084C77.6607 114.084 77.5565 114.081 77.4476 114.077V111.712C77.5281 111.716 77.5991 111.719 77.6607 111.719C77.7175 111.723 77.7791 111.726 77.8453 111.726C78.333 111.726 78.6739 111.622 78.8681 111.413C79.0669 111.21 79.1664 110.902 79.1664 110.49V99.0909ZM80.6721 97.6847C80.227 97.6847 79.8435 97.5355 79.5215 97.2372C79.1995 96.9342 79.0385 96.572 79.0385 96.1506C79.0385 95.7339 79.1995 95.3764 79.5215 95.0781C79.8435 94.7751 80.227 94.6236 80.6721 94.6236C81.1266 94.6236 81.5125 94.7751 81.8297 95.0781C82.1517 95.3764 82.3127 95.7339 82.3127 96.1506C82.3127 96.572 82.1517 96.9342 81.8297 97.2372C81.5125 97.5355 81.1266 97.6847 80.6721 97.6847ZM93.6923 102.202L90.9224 102.372C90.8751 102.135 90.7733 101.922 90.617 101.733C90.4608 101.539 90.2548 101.385 89.9991 101.271C89.7482 101.153 89.4475 101.094 89.0971 101.094C88.6284 101.094 88.233 101.193 87.911 101.392C87.5891 101.586 87.4281 101.847 87.4281 102.173C87.4281 102.434 87.5323 102.654 87.7406 102.834C87.9489 103.014 88.3064 103.158 88.813 103.267L90.7875 103.665C91.8481 103.883 92.6388 104.233 93.1596 104.716C93.6805 105.199 93.9409 105.833 93.9409 106.619C93.9409 107.334 93.7302 107.962 93.3088 108.501C92.8921 109.041 92.3192 109.463 91.59 109.766C90.8656 110.064 90.0299 110.213 89.0829 110.213C87.6388 110.213 86.4882 109.912 85.6312 109.311C84.7789 108.705 84.2794 107.881 84.1326 106.839L87.1085 106.683C87.1984 107.124 87.4163 107.46 87.7619 107.692C88.1075 107.919 88.5502 108.033 89.09 108.033C89.6203 108.033 90.0465 107.931 90.3684 107.727C90.6951 107.519 90.8609 107.251 90.8656 106.925C90.8609 106.65 90.7449 106.425 90.5176 106.25C90.2903 106.07 89.9399 105.933 89.4664 105.838L87.5772 105.462C86.5119 105.249 85.7188 104.879 85.198 104.354C84.6819 103.828 84.4238 103.158 84.4238 102.344C84.4238 101.643 84.6132 101.039 84.992 100.533C85.3755 100.026 85.9129 99.6354 86.6042 99.3608C87.3002 99.0862 88.1146 98.9489 89.0474 98.9489C90.4252 98.9489 91.5095 99.2401 92.3002 99.8224C93.0957 100.405 93.5597 101.198 93.6923 102.202Z" fill="#4CAF50"/>
<path d="M33.2799 45.9485L24.3581 50.8849C24.0236 51.0685 23.8181 51.4104 23.8181 51.7794V61.6576C23.8181 62.0267 24.0236 62.3667 24.3581 62.5522L33.2817 67.4922C33.6145 67.6758 34.0272 67.6758 34.3599 67.4922L43.2817 62.5522C43.6126 62.3667 43.8181 62.0267 43.8181 61.6576V51.7794C43.8181 51.4104 43.6126 51.0704 43.2781 50.8849L34.3581 45.9485C34.1908 45.8558 34.0035 45.8104 33.8181 45.8104C33.6308 45.8104 33.4454 45.8558 33.2781 45.9485M79.1834 54.8413L77.6962 55.6631C77.6398 55.694 77.6071 55.7504 77.6071 55.8122V57.4594C77.6071 57.5213 77.6416 57.5776 77.6962 57.6085L79.1834 58.4322C79.2398 58.4631 79.3071 58.4631 79.3634 58.4322L80.8507 57.6085C80.9053 57.5776 80.9398 57.5213 80.9398 57.4594V55.8122C80.9398 55.7504 80.9053 55.694 80.8489 55.6631L79.3616 54.8413C79.3344 54.8249 79.3034 54.8176 79.2725 54.8176C79.2416 54.8176 79.2107 54.8249 79.1834 54.8413Z" fill="#388E3C"/>
<path d="M67.0019 35.4796L62.6583 33.0559C62.5219 32.9796 62.3546 32.9814 62.2201 33.0614C62.0855 33.1414 62.0019 33.285 62.0019 33.4414L62.0001 48.0814L57.9946 45.865C57.8274 45.7723 57.6401 45.7268 57.4546 45.7268C57.2692 45.7268 57.0819 45.7723 56.9146 45.865H56.9165L47.9947 50.8014C47.6601 50.985 47.4547 51.3268 47.4547 51.6941V61.5723C47.4547 61.9414 47.6601 62.2814 47.9947 62.4668L56.9183 67.4068C57.251 67.5905 57.6637 67.5905 57.9965 67.4068L66.9183 62.4668C67.2492 62.2832 67.4546 61.9414 67.4546 61.5723V36.2505C67.4546 35.9305 67.2801 35.6359 67.0019 35.4796ZM61.7564 59.2868L57.7019 61.5323C57.551 61.6159 57.3637 61.6159 57.2128 61.5323L53.1565 59.2868C53.0019 59.2032 52.9092 59.0468 52.9092 58.8796V54.3887C52.9092 54.2214 53.0019 54.0668 53.1546 53.9814L57.211 51.7377C57.2874 51.6959 57.3692 51.6759 57.4546 51.6759C57.5401 51.6759 57.6237 51.6977 57.7001 51.7377L61.7546 53.9814C61.9074 54.0668 62.0001 54.2232 62.0001 54.3905V58.8814C62.0001 59.0468 61.9074 59.2032 61.7564 59.2868Z" fill="#37474F"/>
<path d="M33.2799 45.9485L23.8181 61.6576C23.8181 62.0267 24.0236 62.3667 24.3581 62.5522L33.2817 67.4922C33.6145 67.6758 34.0272 67.6758 34.3599 67.4922L43.8181 51.7794C43.8181 51.4104 43.6126 51.0704 43.2781 50.8849L34.3581 45.9485C34.1908 45.8558 34.0036 45.8104 33.8181 45.8104C33.6308 45.8104 33.4454 45.8558 33.2781 45.9485" fill="#2E7D32"/>
<path d="M33.2799 45.9485L24.3581 50.8849C24.0236 51.0685 23.8181 51.4104 23.8181 51.7794L33.2799 67.4922C33.6126 67.6758 34.0254 67.6758 34.3581 67.4922L43.2799 62.5522C43.6126 62.3667 43.8181 62.0267 43.8181 61.6576L34.3581 45.9485C34.1908 45.8558 34.0036 45.8104 33.8181 45.8104C33.6308 45.8104 33.4454 45.8558 33.2781 45.9485" fill="#4CAF50"/>
<path d="M88.7326 50.8015L79.8126 45.8652C79.6453 45.7724 79.4581 45.727 79.2726 45.727C79.0872 45.727 78.8999 45.7724 78.7326 45.8652L69.8126 50.8015C69.4799 50.9852 69.2726 51.3343 69.2726 51.7161V61.5542C69.2726 61.9342 69.4799 62.2851 69.8126 62.4688L78.7363 67.4088C79.0708 67.5942 79.4799 67.5942 79.8144 67.4088L83.929 65.1306C84.3053 64.9215 84.3035 64.3815 83.9253 64.1742L74.9726 59.2888C74.8217 59.2033 74.7272 59.0451 74.7272 58.8742V54.3906C74.7272 54.2233 74.8181 54.0688 74.9635 53.9888L79.0272 51.7415H79.0253C79.1017 51.6997 79.1853 51.6797 79.2708 51.6797C79.3562 51.6797 79.4399 51.7015 79.5163 51.7415L83.5799 53.9906C83.7253 54.0706 83.8162 54.2252 83.8162 54.3924V58.0506C83.8162 58.207 83.8999 58.3524 84.0362 58.4306C84.1726 58.507 84.3399 58.507 84.4762 58.4288L88.8362 55.8961C89.1053 55.7397 89.2726 55.4506 89.2726 55.1379V51.7197C89.2726 51.3361 89.0653 50.9852 88.7326 50.8015ZM21.46 50.8015L12.54 45.8652C12.3727 45.7724 12.1854 45.727 12 45.727C11.8145 45.727 11.6273 45.7724 11.46 45.8652L2.54 50.8015C2.20727 50.9852 2 51.3343 2 51.7161V65.2888C2 65.4451 2.08364 65.5906 2.22 65.6688C2.35636 65.7451 2.52364 65.7451 2.66 65.667L7.01999 63.1342C7.28908 62.9779 7.45454 62.6888 7.45454 62.3761V54.3888C7.45454 54.2215 7.54545 54.067 7.6909 53.987L11.7545 51.7397C11.8309 51.6979 11.9145 51.6779 12 51.6779C12.0854 51.6779 12.1691 51.6997 12.2454 51.7397L16.3091 53.9888C16.4545 54.0688 16.5454 54.2233 16.5454 54.3906V62.3779C16.5454 62.6906 16.7109 62.9797 16.9818 63.1361L21.3418 65.6688C21.4782 65.747 21.6454 65.747 21.7818 65.6706C21.9163 65.5906 22 65.4451 22 65.2888V51.7179C22 51.3361 21.7927 50.9852 21.46 50.8015Z" fill="#37474F"/>
<path d="M102.203 69.25C101.865 69.25 101.529 69.1616 101.233 68.9907L98.1444 67.1617C97.6829 66.9035 97.908 66.8121 98.0601 66.7597C98.6755 66.5445 98.7998 66.4956 99.4565 66.1225C99.5254 66.083 99.6156 66.0972 99.6863 66.139L102.059 67.5472C102.145 67.5937 102.267 67.5937 102.346 67.5472L111.598 62.2064C111.683 62.1575 111.739 62.0585 111.739 61.9565V51.2803C111.739 51.1736 111.684 51.0787 111.596 51.0256L102.348 45.689C102.263 45.6383 102.149 45.6383 102.063 45.689L92.8166 51.025C92.727 51.0757 92.6698 51.1753 92.6698 51.2773V61.9541C92.6698 62.0561 92.7252 62.1533 92.8137 62.2017L95.3476 63.6652C96.7233 64.3531 97.5638 63.5426 97.5638 62.7274V52.1903C97.5638 52.04 97.6817 51.9239 97.8326 51.9239H99.0044C99.1505 51.9239 99.2708 52.0394 99.2708 52.1903V62.7327C99.2708 64.567 98.2705 65.6209 96.5311 65.6209C95.9959 65.6209 95.5745 65.6209 94.398 65.0421L91.9708 63.6434C91.3707 63.2957 91 62.6467 91 61.9547V51.2779C91 50.583 91.3707 49.9346 91.9702 49.5916L101.232 44.2484C101.818 43.9172 102.596 43.9172 103.178 44.2484L112.428 49.5939C113.025 49.9387 113.398 50.5853 113.398 51.2803V61.9571C113.398 62.6496 113.025 63.2957 112.428 63.6434L103.177 68.9859C102.881 69.1575 102.545 69.2453 102.203 69.2453" fill="#21A366"/>
<path d="M105.061 61.8929C101.013 61.8929 100.164 60.0344 100.164 58.476C100.164 58.3281 100.284 58.2096 100.433 58.2096H101.628C101.76 58.2096 101.871 58.3057 101.892 58.4359C102.072 59.6537 102.61 60.2679 105.058 60.2679C107.008 60.2679 107.837 59.8276 107.837 58.7931C107.837 58.1978 107.601 57.7557 104.571 57.4593C102.038 57.2093 100.472 56.6512 100.472 54.6247C100.472 52.758 102.047 51.6464 104.685 51.6464C107.647 51.6464 109.115 52.6749 109.3 54.8841C109.307 54.9607 109.28 55.0344 109.229 55.0904C109.178 55.1434 109.106 55.1758 109.032 55.1758H107.83C107.705 55.1758 107.596 55.088 107.57 54.9672C107.281 53.6864 106.581 53.2767 104.68 53.2767C102.552 53.2767 102.304 54.0176 102.304 54.5734C102.304 55.2471 102.596 55.444 105.467 55.8242C108.311 56.2014 109.662 56.7343 109.662 58.733C109.662 60.7477 107.98 61.9035 105.048 61.9035" fill="#21A366"/>
</svg>
