<svg width="115" height="115" viewBox="0 0 115 115" fill="none" xmlns="http://www.w3.org/2000/svg">
<g clip-path="url(#clip0_32_17)">
<path d="M54.456 62.6746C32.3263 62.6746 15 55.1265 15 45.5198C15 35.9131 32.3263 28.365 54.456 28.365C76.5857 28.365 93.912 35.9131 93.912 45.5198C93.912 55.1265 76.5857 62.6746 54.456 62.6746ZM54.456 31.7959C32.841 31.7959 18.431 38.8294 18.431 45.5198C18.431 52.2101 32.841 59.2436 54.456 59.2436C76.071 59.2436 90.4811 52.2101 90.4811 45.5198C90.4811 38.8294 76.071 31.7959 54.456 31.7959Z" fill="#80DEEA"/>
<path d="M39.1881 80.8578C37.4726 80.8578 36.1002 80.5148 34.7278 79.657C26.322 74.8537 28.5521 56.155 39.5312 36.9416C44.6776 28.0211 51.0249 20.473 57.2006 15.6697C63.891 10.5233 69.8951 8.97933 74.0123 11.381C78.301 13.7827 79.8449 19.7868 78.8156 28.1927C77.7863 36.0839 74.3554 45.3475 69.2089 54.2679C64.0625 63.1884 57.7152 70.7365 51.5395 75.5399C47.0793 78.9708 42.7906 80.8578 39.1881 80.8578ZM69.7236 13.6111C66.9788 13.6111 63.3763 15.1551 59.4307 18.2429C53.5981 22.8747 47.5939 30.0797 42.619 38.6571C31.8115 57.3558 30.7822 73.4813 36.4433 76.7407C39.3596 78.4562 44.163 76.9123 49.4809 72.7951C55.3136 68.1633 61.3177 60.9583 66.2926 52.3809C71.2675 43.8035 74.5269 35.0546 75.5562 27.678C76.4139 20.8161 75.3847 16.0128 72.4683 14.2973C71.6106 13.9542 70.7529 13.6111 69.7236 13.6111Z" fill="#80DEEA"/>
<path d="M69.8949 80.8582C61.3175 80.8582 48.966 70.3938 39.7024 54.0968C28.5518 34.8835 26.3217 16.1848 34.7276 11.3814C43.1334 6.57808 58.2296 17.7287 69.3802 36.942C74.5267 45.8625 77.9576 55.1261 78.9869 63.0173C80.1878 71.4231 78.4723 77.2557 74.1836 79.8289C72.8112 80.5151 71.4388 80.8582 69.8949 80.8582ZM36.443 14.2977C30.7819 17.5571 31.8112 33.6826 42.6188 52.3813C53.4263 71.08 66.807 80.0005 72.4681 76.7411C75.3844 75.0256 76.4137 70.2223 75.556 63.3604C74.5267 55.9838 71.2673 47.2349 66.2924 38.6575C55.4849 19.9588 42.1041 11.0383 36.443 14.2977Z" fill="#80DEEA"/>
<path d="M54.4562 52.3816C58.2459 52.3816 61.3181 49.3095 61.3181 45.5197C61.3181 41.73 58.2459 38.6578 54.4562 38.6578C50.6665 38.6578 47.5943 41.73 47.5943 45.5197C47.5943 49.3095 50.6665 52.3816 54.4562 52.3816Z" fill="#80DEEA"/>
<path d="M19.3408 114V99.4545H25.0794C26.1779 99.4545 27.1154 99.651 27.8919 100.044C28.6732 100.432 29.2674 100.984 29.6746 101.699C30.0865 102.409 30.2925 103.245 30.2925 104.206C30.2925 105.172 30.0841 106.003 29.6675 106.699C29.2508 107.39 28.6471 107.92 27.8564 108.29C27.0704 108.659 26.1187 108.844 25.0013 108.844H21.1589V106.372H24.5041C25.0912 106.372 25.5789 106.292 25.9672 106.131C26.3554 105.97 26.6443 105.728 26.8337 105.406C27.0278 105.084 27.1249 104.684 27.1249 104.206C27.1249 103.723 27.0278 103.316 26.8337 102.984C26.6443 102.653 26.3531 102.402 25.9601 102.232C25.5718 102.056 25.0818 101.969 24.4899 101.969H22.416V114H19.3408ZM27.1959 107.381L30.8109 114H27.416L23.8791 107.381H27.1959ZM33.6658 114V99.4545H43.4669V101.99H36.7411V105.456H42.9626V107.991H36.7411V111.464H43.4953V114H33.6658ZM49.619 114H46.3235L51.3448 99.4545H55.3079L60.3221 114H57.0266L53.3832 102.778H53.2695L49.619 114ZM49.413 108.283H57.1971V110.683H49.413V108.283ZM75.423 104.547H72.3122C72.2554 104.144 72.1394 103.787 71.9642 103.474C71.789 103.157 71.5641 102.887 71.2895 102.665C71.0149 102.442 70.6976 102.272 70.3378 102.153C69.9827 102.035 69.5968 101.976 69.1801 101.976C68.4273 101.976 67.7715 102.163 67.2128 102.537C66.6541 102.906 66.2208 103.446 65.9131 104.156C65.6053 104.862 65.4514 105.719 65.4514 106.727C65.4514 107.764 65.6053 108.635 65.9131 109.341C66.2256 110.046 66.6612 110.579 67.2199 110.939C67.7786 111.299 68.4249 111.479 69.1588 111.479C69.5707 111.479 69.9519 111.424 70.3023 111.315C70.6574 111.206 70.9723 111.048 71.2469 110.839C71.5215 110.626 71.7488 110.368 71.9287 110.065C72.1133 109.762 72.2412 109.417 72.3122 109.028L75.423 109.043C75.3425 109.71 75.1413 110.354 74.8193 110.974C74.5021 111.59 74.0736 112.142 73.5338 112.629C72.9988 113.112 72.3596 113.496 71.6162 113.78C70.8776 114.059 70.0419 114.199 69.1091 114.199C67.8117 114.199 66.6517 113.905 65.629 113.318C64.611 112.731 63.8061 111.881 63.2142 110.768C62.6271 109.656 62.3335 108.309 62.3335 106.727C62.3335 105.141 62.6318 103.792 63.2284 102.679C63.825 101.566 64.6347 100.719 65.6574 100.136C66.6801 99.5492 67.8307 99.2557 69.1091 99.2557C69.9519 99.2557 70.7331 99.3741 71.4528 99.6108C72.1773 99.8475 72.8188 100.193 73.3776 100.648C73.9363 101.098 74.3908 101.649 74.7412 102.303C75.0963 102.956 75.3236 103.704 75.423 104.547ZM78.2743 101.99V99.4545H90.2203V101.99H85.7672V114H82.7274V101.99H78.2743Z" fill="#80DEEA"/>
</g>
<defs>
<clipPath id="clip0_32_17">
<rect width="115" height="115" fill="white"/>
</clipPath>
</defs>
</svg>
