<svg width="115" height="115" viewBox="0 0 115 115" fill="none" xmlns="http://www.w3.org/2000/svg">
<g clip-path="url(#clip0_35_16)">
<path d="M89.25 14.375H26V77.625H89.25V14.375Z" fill="url(#paint0_linear_35_16)"/>
<path d="M63.7567 42.4858H40.4543V48.2204H48.8121V74.1108H55.434V48.2204H63.7567V42.4858Z" fill="white"/>
<path d="M84.32 49.661C84.32 49.661 81.1803 47.5667 77.6313 47.5667C74.0823 47.5667 72.805 49.2534 72.805 51.056C72.805 55.7084 85.773 55.2428 85.773 64.6056C85.773 79.0283 66.0003 72.6313 66.0003 72.6313V65.7125C66.0003 65.7125 69.7813 68.5622 74.3159 68.5622C78.8506 68.5622 78.6784 65.5965 78.6784 65.1889C78.6784 60.8861 65.8264 60.8861 65.8264 51.3477C65.8264 38.3797 84.5519 43.4959 84.5519 43.4959L84.32 49.661Z" fill="white"/>
<path d="M4.53835 96.9901V94.4545H16.4844V96.9901H12.0312V109H8.99148V96.9901H4.53835ZM19.0128 113.091C18.6293 113.091 18.2694 113.06 17.9332 112.999C17.6018 112.942 17.3272 112.868 17.1094 112.778L17.7912 110.52C18.1463 110.629 18.4659 110.688 18.75 110.697C19.0388 110.707 19.2874 110.641 19.4957 110.499C19.7088 110.357 19.8816 110.115 20.0142 109.774L20.1918 109.312L16.2784 98.0909H19.4602L21.7188 106.102H21.8324L24.1122 98.0909H27.3153L23.0753 110.179C22.8717 110.766 22.5947 111.277 22.2443 111.713C21.8987 112.153 21.4607 112.492 20.9304 112.729C20.4001 112.97 19.7609 113.091 19.0128 113.091ZM28.8636 113.091V98.0909H31.8466V99.9233H31.9815C32.1141 99.6297 32.3059 99.3314 32.5568 99.0284C32.8125 98.7206 33.1439 98.465 33.5511 98.2614C33.9631 98.053 34.4744 97.9489 35.0852 97.9489C35.8807 97.9489 36.6146 98.1572 37.2869 98.5739C37.9593 98.9858 38.4967 99.6084 38.8991 100.442C39.3016 101.27 39.5028 102.31 39.5028 103.56C39.5028 104.777 39.3063 105.804 38.9134 106.642C38.5251 107.475 37.9948 108.107 37.3224 108.538C36.6548 108.964 35.9067 109.178 35.0781 109.178C34.491 109.178 33.9915 109.08 33.5795 108.886C33.1723 108.692 32.8385 108.448 32.5781 108.155C32.3177 107.857 32.1188 107.556 31.9815 107.253H31.8892V113.091H28.8636ZM31.8253 103.545C31.8253 104.194 31.9152 104.76 32.0952 105.243C32.2751 105.726 32.5355 106.102 32.8764 106.372C33.2173 106.637 33.6316 106.77 34.1193 106.77C34.6117 106.77 35.0284 106.635 35.3693 106.365C35.7102 106.09 35.9683 105.712 36.1435 105.229C36.3234 104.741 36.4134 104.18 36.4134 103.545C36.4134 102.916 36.3258 102.362 36.1506 101.884C35.9754 101.405 35.7173 101.031 35.3764 100.761C35.0355 100.491 34.6165 100.357 34.1193 100.357C33.6269 100.357 33.2102 100.487 32.8693 100.747C32.5331 101.008 32.2751 101.377 32.0952 101.855C31.9152 102.333 31.8253 102.897 31.8253 103.545ZM46.4915 109.213C45.3693 109.213 44.4034 108.986 43.5938 108.531C42.7888 108.072 42.1686 107.423 41.733 106.585C41.2973 105.742 41.0795 104.746 41.0795 103.595C41.0795 102.473 41.2973 101.488 41.733 100.641C42.1686 99.7931 42.7817 99.1326 43.5724 98.6591C44.3679 98.1856 45.3007 97.9489 46.3707 97.9489C47.0904 97.9489 47.7604 98.0649 48.3807 98.2969C49.0057 98.5241 49.5502 98.8674 50.0142 99.3267C50.483 99.786 50.8475 100.364 51.108 101.06C51.3684 101.751 51.4986 102.561 51.4986 103.489V104.32H42.2869V102.445H48.6506C48.6506 102.009 48.5559 101.623 48.3665 101.287C48.1771 100.951 47.9143 100.688 47.5781 100.499C47.2467 100.304 46.8608 100.207 46.4205 100.207C45.9612 100.207 45.554 100.314 45.1989 100.527C44.8485 100.735 44.5739 101.017 44.375 101.372C44.1761 101.723 44.0743 102.113 44.0696 102.544V104.327C44.0696 104.866 44.169 105.333 44.3679 105.726C44.5715 106.119 44.858 106.422 45.2273 106.635C45.5966 106.848 46.0346 106.955 46.5412 106.955C46.8774 106.955 47.1851 106.907 47.4645 106.812C47.7438 106.718 47.983 106.576 48.1818 106.386C48.3807 106.197 48.5322 105.965 48.6364 105.69L51.4347 105.875C51.2926 106.547 51.0014 107.134 50.5611 107.636C50.1255 108.134 49.562 108.522 48.8707 108.801C48.1842 109.076 47.3911 109.213 46.4915 109.213ZM61.4205 98.6378C61.3636 98.0649 61.1198 97.6198 60.6889 97.3026C60.258 96.9853 59.6733 96.8267 58.9347 96.8267C58.4328 96.8267 58.009 96.8977 57.6634 97.0398C57.3177 97.1771 57.0526 97.3688 56.8679 97.6151C56.688 97.8613 56.598 98.1406 56.598 98.4531C56.5885 98.7135 56.643 98.9408 56.7614 99.1349C56.8845 99.3291 57.0526 99.4972 57.2656 99.6392C57.4787 99.7765 57.7249 99.8973 58.0043 100.001C58.2836 100.101 58.5819 100.186 58.8991 100.257L60.206 100.57C60.8404 100.712 61.4228 100.901 61.9531 101.138C62.4834 101.375 62.9427 101.666 63.331 102.011C63.7192 102.357 64.0199 102.764 64.233 103.233C64.4508 103.702 64.562 104.239 64.5668 104.845C64.562 105.735 64.3348 106.507 63.8849 107.161C63.4399 107.809 62.7959 108.313 61.9531 108.673C61.1151 109.028 60.1042 109.206 58.9205 109.206C57.7462 109.206 56.7235 109.026 55.8523 108.666C54.9858 108.306 54.3087 107.774 53.821 107.068C53.3381 106.358 53.0848 105.48 53.0611 104.433H56.0369C56.0701 104.921 56.2098 105.328 56.456 105.655C56.7069 105.977 57.0407 106.221 57.4574 106.386C57.8788 106.547 58.3546 106.628 58.8849 106.628C59.4058 106.628 59.858 106.552 60.2415 106.401C60.6297 106.249 60.9304 106.038 61.1435 105.768C61.3565 105.499 61.4631 105.188 61.4631 104.838C61.4631 104.511 61.366 104.237 61.1719 104.014C60.9825 103.792 60.7031 103.602 60.3338 103.446C59.9692 103.29 59.5218 103.148 58.9915 103.02L57.4077 102.622C56.1813 102.324 55.2131 101.857 54.5028 101.223C53.7926 100.589 53.4399 99.7339 53.4446 98.6591C53.4399 97.7784 53.6742 97.009 54.1477 96.3509C54.6259 95.6927 55.2817 95.179 56.1151 94.8097C56.9484 94.4403 57.8954 94.2557 58.956 94.2557C60.0355 94.2557 60.9777 94.4403 61.7827 94.8097C62.5923 95.179 63.2221 95.6927 63.6719 96.3509C64.1217 97.009 64.3537 97.7713 64.3679 98.6378H61.4205ZM71.5075 109.213C70.39 109.213 69.4289 108.976 68.6239 108.503C67.8237 108.025 67.2082 107.362 66.7773 106.514C66.3512 105.667 66.1381 104.691 66.1381 103.588C66.1381 102.471 66.3536 101.491 66.7844 100.648C67.2201 99.8002 67.8379 99.1397 68.6381 98.6662C69.4383 98.188 70.39 97.9489 71.4933 97.9489C72.445 97.9489 73.2783 98.1217 73.9933 98.4673C74.7082 98.813 75.274 99.2983 75.6907 99.9233C76.1074 100.548 76.337 101.282 76.3796 102.125H73.5245C73.444 101.58 73.2309 101.143 72.8853 100.811C72.5444 100.475 72.0969 100.307 71.543 100.307C71.0742 100.307 70.6647 100.435 70.3143 100.69C69.9686 100.941 69.6987 101.308 69.5046 101.791C69.3105 102.274 69.2134 102.859 69.2134 103.545C69.2134 104.241 69.3081 104.833 69.4975 105.321C69.6916 105.809 69.9639 106.18 70.3143 106.436C70.6647 106.692 71.0742 106.82 71.543 106.82C71.8886 106.82 72.1987 106.749 72.4734 106.607C72.7527 106.464 72.9824 106.259 73.1623 105.989C73.3469 105.714 73.4677 105.385 73.5245 105.001H76.3796C76.3323 105.835 76.105 106.569 75.6978 107.203C75.2953 107.833 74.739 108.325 74.0288 108.68C73.3185 109.036 72.4781 109.213 71.5075 109.213ZM78.3168 109V98.0909H81.25V99.9943H81.3636C81.5625 99.3172 81.8963 98.8059 82.3651 98.4602C82.8338 98.1098 83.3736 97.9347 83.9844 97.9347C84.1359 97.9347 84.2992 97.9441 84.4744 97.9631C84.6496 97.982 84.8035 98.008 84.9361 98.0412V100.726C84.794 100.683 84.5975 100.645 84.3466 100.612C84.0956 100.579 83.866 100.562 83.6577 100.562C83.2126 100.562 82.8149 100.66 82.4645 100.854C82.1188 101.043 81.8442 101.308 81.6406 101.649C81.4418 101.99 81.3423 102.383 81.3423 102.828V109H78.3168ZM86.5004 109V98.0909H89.5259V109H86.5004ZM88.0202 96.6847C87.5704 96.6847 87.1845 96.5355 86.8626 96.2372C86.5453 95.9342 86.3867 95.572 86.3867 95.1506C86.3867 94.7339 86.5453 94.3764 86.8626 94.0781C87.1845 93.7751 87.5704 93.6236 88.0202 93.6236C88.4701 93.6236 88.8536 93.7751 89.1708 94.0781C89.4928 94.3764 89.6538 94.7339 89.6538 95.1506C89.6538 95.572 89.4928 95.9342 89.1708 96.2372C88.8536 96.5355 88.4701 96.6847 88.0202 96.6847ZM91.9496 113.091V98.0909H94.9325V99.9233H95.0675C95.2 99.6297 95.3918 99.3314 95.6428 99.0284C95.8984 98.7206 96.2299 98.465 96.6371 98.2614C97.049 98.053 97.5604 97.9489 98.1712 97.9489C98.9666 97.9489 99.7005 98.1572 100.373 98.5739C101.045 98.9858 101.583 99.6084 101.985 100.442C102.388 101.27 102.589 102.31 102.589 103.56C102.589 104.777 102.392 105.804 101.999 106.642C101.611 107.475 101.081 108.107 100.408 108.538C99.7408 108.964 98.9927 109.178 98.1641 109.178C97.5769 109.178 97.0774 109.08 96.6655 108.886C96.2583 108.692 95.9245 108.448 95.6641 108.155C95.4036 107.857 95.2048 107.556 95.0675 107.253H94.9751V113.091H91.9496ZM94.9112 103.545C94.9112 104.194 95.0012 104.76 95.1811 105.243C95.361 105.726 95.6214 106.102 95.9624 106.372C96.3033 106.637 96.7176 106.77 97.2053 106.77C97.6977 106.77 98.1143 106.635 98.4553 106.365C98.7962 106.09 99.0542 105.712 99.2294 105.229C99.4093 104.741 99.4993 104.18 99.4993 103.545C99.4993 102.916 99.4117 102.362 99.2365 101.884C99.0613 101.405 98.8033 101.031 98.4624 100.761C98.1214 100.491 97.7024 100.357 97.2053 100.357C96.7128 100.357 96.2962 100.487 95.9553 100.747C95.6191 101.008 95.361 101.377 95.1811 101.855C95.0012 102.333 94.9112 102.897 94.9112 103.545ZM110.408 98.0909V100.364H103.839V98.0909H110.408ZM105.33 95.4773H108.356V105.648C108.356 105.927 108.398 106.145 108.484 106.301C108.569 106.453 108.687 106.559 108.839 106.621C108.995 106.682 109.175 106.713 109.379 106.713C109.521 106.713 109.663 106.701 109.805 106.678C109.947 106.649 110.056 106.628 110.131 106.614L110.607 108.865C110.456 108.912 110.243 108.967 109.968 109.028C109.693 109.095 109.36 109.135 108.967 109.149C108.237 109.178 107.598 109.08 107.049 108.858C106.504 108.635 106.081 108.29 105.778 107.821C105.475 107.352 105.326 106.76 105.33 106.045V95.4773Z" fill="#1B95EA"/>
</g>
<defs>
<linearGradient id="paint0_linear_35_16" x1="42.1446" y1="3.46789" x2="72.1655" y2="85.9476" gradientUnits="userSpaceOnUse">
<stop stop-color="#2AA4F4"/>
<stop offset="1" stop-color="#007AD9"/>
</linearGradient>
<clipPath id="clip0_35_16">
<rect width="115" height="115" fill="white"/>
</clipPath>
</defs>
</svg>
